<?xml version="1.0" encoding="utf-8"?>
<!-- Generator: Adobe Illustrator 19.2.1, SVG Export Plug-In . SVG Version: 6.00 Build 0)  -->
<svg version="1.1" id="Layer_1" xmlns="http://www.w3.org/2000/svg" xmlns:xlink="http://www.w3.org/1999/xlink" x="0px" y="0px"
	 viewBox="0 0 250 250" style="enable-background:new 0 0 250 250;" xml:space="preserve">
<style type="text/css">
	.st0{fill:none;stroke:#FFFFFF;stroke-miterlimit:10;stroke-width:8}
	.st1{fill:#FFFFFF;stroke:#FFFFFF;stroke-miterlimit:10;stroke-width:8}
</style>
<path class="st0" d="M130.3,245.1c-8.9,0.2-17.3-1.2-25-5.5c-6.6-3.7-14.3-3.1-21.6-3.6c-18.5-1.1-30.2-11.3-38.4-26
	c-2.2-3.8-4.6-7-8.7-8.8c-13.6-6-20.4-17.2-25-30c-2.8-7.7-4.9-15.7-4.6-24c0-1-0.2-2.1,0.2-2.9C9.6,139,7.9,134.7,5,130
	c-5.2-8.7-5.5-18-1.2-27.2c4.4-9.6,9.3-19,11.7-29.4c1.3-5.2,5.1-9.3,8.7-13.3c3.4-3.8,7-7.4,9.5-11.9c0.5-0.8,1.3-1.6,2.1-2.1
	C48,38.7,59.7,30.3,73.5,25.7c10.7-3.6,21.7-5.9,33.1-2.2c3.6,1.2,7.5,0.7,10.9-1c3.5-1.7,7.1-3.2,10.4-5.2c6.9-4.4,15-6,22.7-7.9
	c7.9-2,16.1,0.5,23.7,3.6c10.5,4.2,18.3,11.5,24.7,20.4c1.4,1.9,2.9,2.7,5.2,2.9c9.4,1.1,18.3,3.8,26.8,7.8c2.3,1.1,4,2.6,5.4,4.6
	c10,14.3,13.6,29.9,9.4,46.7c-2.4,9.2-0.7,17.9,1,26.8c2,10.1,0,19.5-3.5,29c-3.6,10-6,20.6-12,29.7c-4.3,6.5-10.1,11.8-16.3,16.7
	c-1.2,1-2.6,1.8-3.1,3.4c-4.6,15.9-16.6,25.7-31.3,32.7C164.8,241.2,147.8,244.6,130.3,245.1z"/>
<path class="st0" d="M13,130c-6.4-9-6.4-18-1.4-27.7c3.5-6.7,6.8-13.5,8.8-20.9c2.2-8,7.2-14.6,12.6-21.1
	c13.1-15.8,30.8-24.5,50.5-30.1c9.5-2.7,18.6-0.9,27.8,1.2c1.6,1.9,1.6,4.4,2.9,6.4c0.7,1.1,0,2.1-1,2.9c-3.1,2.6-5.7,5.5-8.1,8.7
	c-0.6,0.8-1.5,1.5-2.6,1.4c-7.9-0.5-12.4,4.6-16.8,9.7c-4,4.8-8.9,8.3-15.1,10c-5.4,1.5-9.2,5-11,9.8c-1.8,4.4-3.6,8.4-8,11.1
	c2.2-0.2,3.7-1.3,5.4-2.3c2.8-1.5,5.7-3.1,9-2.9c3.2,0.2,5.2-1,6.9-3.4c3.6-5.1,8.3-8.8,14.8-10.2c2.5-0.5,3.6-2.6,4.9-4.4
	c5.2-7.3,10-15,16-21.8c0.9-1.1,1.8-2.2,2.9-3.1c2.9-2.3,4.7-4.6,2.2-8.4c-1.3-1.9-0.2-3.7,2.3-4.4c10.3-4,19.3-10.2,30.5-12.4
	c16.6-3.2,30.6,0.2,41.5,13.1c0.5,0.9,0.1,1.8-0.6,2.3c-4.1,3.1-7.1,7.8-12.8,8.8c-3.9,0.7-6,3.3-6.2,7.1c-0.2,2.8-1.3,4.7-3.8,6
	c-1.5,0.7-2.7,1.9-3.3,3.3c-1.8,4-5,6.2-9.1,7.8c-4.4,1.8-8.6,4.1-11.8,7.6c-0.8,0.9-2.2,1.7-1.2,3.2c1.1,1.6,2.7,1.5,4.2,0.9
	c2.9-1.1,4.9-3.1,5.6-6c0.8-3,2.6-4.8,5.4-6c4-1.7,5.8-5.7,8.8-8.5c3.3-3.3,4.3-3.3,7.6,0.1c4.9,4.3,10.2,7.5,17.2,4
	c2-1,4.2-0.7,6.4-0.6c5.5,0.3,9.4-2.4,12.1-6.7c1-1.5,1.9-3.1,2.6-4.8c1.5-3.6,3.9-4.9,7.8-3.3c3.5,1.8,6.8,4.1,10.8,4.9
	c2.3,0.5,3.5,2.8,4.7,4.6c5.4,8.2,7.9,17.1,6.7,26.9c-0.7,5.1-1.3,10.2-2.2,15.3c-1.2,7.4,0.1,14.7,1.9,21.9
	c2.6,10.7,1.6,20.9-3.5,30.7c-2.3,4.4-3.7,9-4.7,13.8c-2.4,11.5-9.9,19.7-19.2,26.6c-1.7,1.3-3.4,2.6-5,3.9c-3.1,3.7-7,6.6-10.4,10
	c-0.4,0.4-0.9,0.8-1.4,1c-4.7,1-8.5,3.1-10.6,7.5c-0.7,1.5-2.7,1.6-4.2,1.6c-3,0-5.6,0.9-8.2,2.4c-3.7,2.3-7.6,3.4-11.6,0.5
	c-1.8-1.3-3.6-0.7-4.9,1c-1.2,1.4-1.8,3-0.5,4.6s3,1.3,4.7,0.7c2.8-0.9,5.3-2.1,7.8-3.6c3.4-2,7-3.3,11-3.5c3.7-0.2,6.4-1.7,8-4.8
	c1.4-2.8,3.5-4.3,6.6-4.8c2.5-0.4,4.4-1.8,6.2-3.6c0.9-0.9,1.9-2.3,3.2-1.5c1.5,0.9,0.2,2.2-0.2,3.3c-0.2,0.5-0.2,1.1-0.8,1.4
	c-6.9,12.5-18.9,19-31.9,23.9c-14.2,5.4-29.2,7.8-44.6,7.1c-3.6-0.2-7.3-0.3-10.5-2.2c-8.5-5.2-17.9-6.7-27.7-6.8
	c-17.5-0.1-28.1-9.7-35.3-23.7c-2.3-4.4-5.5-8-10.1-9.8c-11.4-4.6-17.4-13.6-21.3-24.2c-2.9-7.8-4.9-15.9-5.7-24.2
	c3.7-2.2,8.1-3.6,10.6-7.6c2.4-3.8,1.7-6.1-3-7.1C18.6,131.9,15.3,132.4,13,130z"/>
<path class="st0" d="M192.3,37.3c1.3,1.8,2.4,3.6,4.2,5c2.4,1.1,4.7,1.6,7.5,1.2c3-0.4,4.1,1.3,4.1,4c0,5.9-8.4,13.4-14.6,12.8
	c-2.7-0.3-5.1-0.3-7.5,1.2c-1,0.6-2.2,0.9-3.4,0.5c-4.2-1.3-8.7-2-12.4-4.5c-3.6-7.5-1.2-13,7.1-15.3c3.6-1,5.2-4.2,8.1-5.9
	C188.2,34.8,190.6,33.9,192.3,37.3z"/>
<path class="st0" d="M116.1,30.7c-2.3,2-2.1,4-0.3,6.2c1.1,1.3,1.6,2.6,0,4c-9.6,8.9-16.3,19.8-23.6,30.2c-1.1,1.6-2.3,2.7-4.6,3.1
	c-6.3,0.9-10.5,5.1-14,9.8c-1.9,2.5-3.6,4-7.4,3.6c-4.3-0.5-7.9,2.2-11.4,4.4c-1.5,0.9-3.7,2.8-4.7,1.3c-1.3-1.9,1.4-3.3,3.1-4.2
	c2.4-1.2,3.5-3.1,4.3-5.5c2.4-7.5,6.9-12.9,15.4-14.7c5.2-1.1,8.6-5,11.9-8.6c2.8-3,5.3-6.2,9-8.4c1.2-0.7,2.7-1.7,3.9-1.5
	c8.6,0.9,10-7.7,15.6-10.6c1.1-0.6,0.5-1.4-0.1-2c-1.6-1.8-1.9-4-1.7-6.3C112.8,30.5,114.4,30.4,116.1,30.7z"/>
<path class="st0" d="M201,207.3c-0.2-1.6,1.7-3,0.6-5.1c-2.9,4.1-6.3,6.9-11.6,7c-1.6,0-2,1.9-2.6,3.1c-1.9,3.9-4.5,6.1-9.3,6
	c-4.6-0.1-8.5,2.5-12.5,4.4c-2.4,1.1-4.7,2.1-7,3.2c-2.2,1-3.9,0.5-5.2-1.4c-1.7-2.5-0.7-4.9,1.1-6.8c1.5-1.6,3.6-2.5,5.4-0.9
	c4.3,4.1,8.1,2.1,11.9-0.5c2.5-1.6,5.2-2.5,8.2-2.1c2.5,0.4,3.7-0.5,4.5-2.7c1.2-3.6,3.7-5.5,7.7-5.6c1.9-0.1,3.2-1,4.3-2.3
	c3-3.2,6.1-6.3,10.1-8.4C205,199.2,204.5,203.9,201,207.3z"/>
<path class="st0" d="M192.3,37.3c-3.5-3.6-6-0.3-8.2,1.6c-2.6,2.1-4.6,4.1-8.3,5c-5.9,1.5-7.3,5.7-5.1,13.1c0.3,0.9-0.1,1.2-1,1.1
	c-1.5-2.4-3-2.9-5-0.5c-3.9,4.3-6.9,9.7-13.4,11.2c-1.3,0.3-0.6,1.7-0.8,2.6c-0.9,3.8-3,6.6-6.8,8.1c-2.5,0.9-4.6,0.1-6.1-1.9
	c-1.6-2.1,0.8-3,1.8-4.1c4.2-4.6,9.9-7.2,15.7-9.4c1.4-0.5,2.7-0.8,3.4-2.3c1.7-3.6,3.5-7,7.8-8.4c1.7-0.6,0.9-2.1,1-3.3
	c0.3-4.3,2.1-7.9,6.7-8.6c6.8-1,9.9-6.3,14.3-10.1C189.9,33.1,191.8,34.7,192.3,37.3z"/>
<path class="st0" d="M169.7,58.1c0.3-0.4,0.7-0.7,1-1.1c3.2,1.1,6.2,2.2,9.4,3.3c2.6,0.9,5,1.8,7.4-0.8c1.2-1.3,3.2-1,4.9-0.7
	c6.5,1.1,13.7-4.1,14.6-10.6c0.6-3.7-0.3-4.7-4.1-3.8c-2.8,0.6-4.8,0.3-6.4-2c6.9,0.5,13.9,0.8,20.2,4.1c-3.8-0.9-5.6,0.8-6.9,4.1
	c-1.3,3.2-3.2,6.2-5.9,8.6c-2.6,2.2-5.3,3.7-9,3.1c-3.3-0.5-6.2,0.1-9.2,1.5C181.2,65.9,174.2,63.3,169.7,58.1z"/>
<path class="st0" d="M13,130c2.9,0.5,5.7,0.9,8.5,1.4c5.6,1,7.1,4.3,3.9,8.7c-2.8,4-6.4,6.7-11.5,7.2c0.1-1.4-0.5-3,0.9-4.2
	c1.8-1.4,4.3-1.3,5.7-3.3c0.7-1,2.1-2,1.6-3.2c-0.7-1.5-2.5-0.8-3.8-1c-0.8-0.1-1.3,0.6-1.9,0.8C15.3,134.3,14.1,132.2,13,130z"/>
<path class="st0" d="M16.4,136.5c0.5-0.7-0.7-2.2,1.1-2.1c2.2,0.1,4.4,0.1,6.3,0.9c1.1,0.4-0.3,1.9-0.8,2.8
	c-1.6,3.4-3.8,5.8-8.2,5.1C15.3,140.9,16.9,138.9,16.4,136.5z"/>
<path class="st0" d="M100.7,207.2c-3.6-0.2-7.4-0.6-10.6-2.7c-1.7-1.1-2.4-1.4-3.4,0.8c-1.6,3.5-4.7,5.2-8.8,5
	c-3.9-0.2-6.6-2.2-7.8-5.6c-0.8-2.2-2.5-2.9-4.2-3.7c-4.9-1.9-10.1-3.5-14.8-6c-5.8-3.1-9.6-7.6-9.6-14.3c0-4.2-3.3-5.7-6.2-7.2
	c-3.5-1.9-4.6-4.6-4.3-8.2c0.1-0.8,0-1.8,1.1-2c0.9-0.2,1.2,0.7,1.5,1.3c3.5,6.7,10.1,10.6,14.8,16.3c1.1,1.3,2.1,1.2,2.4-0.4
	c0.6-4,1.4-7.6,6.2-9c5.4-1.6,10.6-0.7,15.7,1.1c1.2,0.4,2.4,1,3.5,1.5c4,2,7,0.3,6-4c-0.8-3.5,0.9-4.7,3.4-6.1
	c2.7-1.5,5.2-3,7.2-5.3c2.3-2.7,2.9-5.7,1.6-9c-1.2-3.1,0.6-4.8,3.3-5.8c3.1-1.2,5.7-0.4,7.9,1.9c1,1-0.1,1.8-0.6,2.5
	c-5,7.1-9.9,14.4-17.8,19c-0.6,0.3-1.5,0.9-1.5,1.3c0.5,4.2-2.3,7.7-2.8,11.7c-0.4,3.1,0.7,5.6,3.4,7.6c3.7,2.8,7.1,5.7,5.5,11.2
	c-0.6,2.1,5.2,5.2,8.7,4.4c6.4-1.6,9.6,3.6,14.1,5.8c2.3,1.1,0.3,2.3-1.1,2.6c-3,0.6-4.8-1.3-6.9-2.8
	C104.8,207.9,103.4,205.9,100.7,207.2z"/>
<path class="st0" d="M134.7,207.4c1.9-3,4.3-4.6,6.9-6.2c2.8-1.8,5.6-3.6,7.1-6.5c0.8-1.5,1.9-1.5,3.2-1.6c2.9-0.2,5.3-1.1,7.5-2.9
	c5.3-4.3,4.9-4.8,1.1-10.4c-2-2.9-3.5-2.9-6.3-2.4c-7.5,1.1-11.4-3.6-9-10.6c2.7-7.6,8.2-9.5,15.7-5.5c0.9,0.5,1.6,0.5,2.5,0.3
	c5.6-1.9,11.1-0.4,16.8,0.3c2.5,0.3,4.9,0.6,7.3,0.6c5.4,0,8.3-2.2,9.4-7.4c0.5-2.4,1.4-3.8,3.8-4.8c6.9-2.7,10.9-8,13.4-14.5
	c0.3-0.8,0-2.4,1.5-2c1.4,0.3,1.1,1.7,0.8,2.8c-1.8,7.4-5.3,13.5-13.3,16.1c-1.7,0.6-2.6,1.5-3.3,3c-2.4,5-4.8,9.9-11.4,10.9
	c-2.2,0.3-1,1.7-0.6,2.5c1.3,3,1,5.3-1.8,7.7c-2.6,2.2-4.1,5.3-6.4,7.8c-2.7,3.1-6,4.7-10.4,3.1c-1-0.4-2.1-1-3.2,0.3
	c-3.1,3.8-7.2,6.9-8.9,11.7c-1.2,3.3-4.9,5.6-8.3,4.2c-2.5-1-3.6-0.1-5.3,1C139.5,207.6,139.4,207.6,134.7,207.4z"/>
<path class="st0" d="M127.1,118.7c-0.6-3.3,0.8-5.4,3.5-6.6c2.2-1,4.5-1.7,6.9-2.3c3.9-1,6.7-3.4,9.8-5.8c5.4-4.3,8.1-9.7,10.8-15.7
	c5.3-11.5,18.8-16.5,32.7-13.5c2.2,0.5,4,2,6.5,0.5c4.8-2.9,10.9-4,13.9-9.5c0.5-0.9,0-2.9,2.2-2.2c2.4,0.8,0.8,2.4,0.4,3.4
	c-1.6,4.4-3.3,8.2-9.4,8.8c-4.9,0.4-5.6,2.4-3.2,6.6c3.8,6.5,3,12.2-2.3,17.7c-5.8,6.2-11.9,11.8-21.5,11.4c-1,0-2.1-0.1-3-0.4
	c-4-1.5-7.6-4.2-12.3-3.5c-1.8,0.2-3.8-1.1-4.6-2.7c-2.2-4.4-4.9-2.6-6.7-0.3c-3.4,4.5-7.7,6.6-13.2,7.8
	C133.7,113.2,131,116.8,127.1,118.7z"/>
<path class="st0" d="M27.7,151.6c-0.2-2.5,0.6-4.4,3.9-4.3c3.4,0.1,6.5,3.2,6.4,6.7c-0.1,2.9-1.4,5.2-4.9,5.1
	C29.7,159,27.7,156.2,27.7,151.6z"/>
<path class="st0" d="M223.6,122.1c-0.4,2.7-0.2,5.8-4.2,5.6c-2.9-0.2-5.8-0.5-5.6-4.6c0.3-4.6,1.9-6.6,5.7-6.7
	C224.1,116.3,222.8,119.9,223.6,122.1z"/>
<path class="st0" d="M51.2,102.7c-0.2,2.9-0.4,5.6-4,5.5c-3.7-0.1-5-2.8-5.4-5.9c-0.3-3.3,2.2-6.1,5.1-5.9
	C51.4,96.7,50.3,100.5,51.2,102.7z"/>
<path class="st0" d="M120.1,123.3c0.2,1.7-0.8,1.7-1.9,1.7c-1-0.1-2.4-0.1-2.5-1.2c-0.1-1.5,1.6-1.8,2.7-2.1
	C119.5,121.4,120,122.6,120.1,123.3z"/>
<path class="st0" d="M219.3,61.3c-0.4,1-0.9,2-2.4,1.7c-1.1-0.2-1.3-1.2-1.2-2c0.2-1.2,1.2-1.4,2.3-1.4
	C219.3,59.6,219.5,60.2,219.3,61.3z"/>
<path class="st1" d="M121.9,209c0.8,0.1,2-0.2,1.7,1.2c-0.2,1-0.4,2.3-2,2.2c-1.2-0.1-1.6-1-1.7-2
	C119.7,208.8,120.9,209.1,121.9,209z"/>
<path class="st0" d="M110.5,130c-0.3,1-1,1.5-1.9,1.4c-1.5-0.1-1.8-1.2-1.8-2.3c0-0.9,0.7-1,1.5-1
	C109.7,128.1,110.2,128.9,110.5,130z"/>
<path class="st0" d="M60,85.4c0.2-4.3,2.6-7.1,5.6-9.5c2.8-2.2,6.1-3.7,9.4-5.1c6.9-2.9,12.7-6.9,16.7-13.3c2.5-3.9,4.5-4.6,9.1-4.2
	c-0.5,3.1-2.5,5.2-4.6,7.3c-2.7,2.6-5.4,5.1-6.2,8.8c-0.3,1.5-1.4,1.6-2.5,1.8c-7.3,1.5-12.9,5.4-16.6,11.6c-0.8,1.4-1.7,2-3.4,2
	C65.2,84.8,62.8,85.1,60,85.4z"/>
<path class="st0" d="M158.1,219.6c0.8,0.1,2-0.3,1.9,1c0,1.2-0.8,2.1-2.1,2.2c-1,0.1-2.1-0.2-2.2-1.4
	C155.6,219.8,157,219.9,158.1,219.6z"/>
<path class="st0" d="M145.9,72.4c0.7,1.2,0.2,2.1-0.7,3c-1.2,1.2-2.6,1.7-4.3,1.6c-0.7-0.1-1.1-0.5-1-1.1c0.4-1.5,1.7-2.2,3.1-2.7
	C144.1,72.8,144.9,72,145.9,72.4z"/>
<path class="st0" d="M65.1,174.5c4.5,0.2,9.4,0.5,12.8,4.4c0.4,0.4,0.9,0.9,1,1.4c0.8,5.5,2.6,10.3,8.1,13.4
	c1.7,0.9,1.3,3.1-0.4,4.7c-2.2,2-3.9,4.1-4.8,7.2c-0.8,2.7-4.5,1.5-5.2,0.3c-3-5-8.3-6.7-12.9-9.5c-2.3-1.4-2.9-4.4-4.2-6.7
	c-0.9-1.4-1.4-3.3-2.6-4.3c-2.9-2.4-3.6-4.9-1.8-8.3c1.7-3.2,4.7-1.8,7.2-2.4C63,174.5,63.9,174.5,65.1,174.5z"/>
<path class="st0" d="M45.2,185.8c4.4-0.8,9.1,0.8,10.5,3.6c0.6,1.1,1.1,2.5,0,3.5s-2.3,0-3.1-0.7C50.2,190.2,47.9,188.1,45.2,185.8z
	"/>
<path class="st0" d="M98.8,150.7c-1.2,0.1-2.1-0.2-1.8-1.5c0.3-1.1,0-2.8,1.8-2.7c1.2,0,2.9,0.2,2.8,1.8
	C101.6,149.7,100.4,150.6,98.8,150.7z"/>
<path class="st0" d="M158.8,173.3c-2.4,0.3-4.6,0.6-6.9,0.9c-2.2,0.3-3.2-0.8-3.6-2.6c-1.2-4.7,2-9.1,6.6-9.4c0.6,0,1.5-0.2,1.7,0.1
	c5.6,6.3,13-0.4,19.3,2.4c3.5,1.6,6.3,3.4,8.8,5.9c0.6,0.6,0.9,1.6-0.1,2.2c-3.5,2.1-4.4,5.7-6.4,8.7c-3.1,4.7-7.7,4.9-11.2,0.6
	c-1.8-2.2-3.3-4.6-4.8-6.9C161.3,173.9,160.5,172.7,158.8,173.3z"/>
<path class="st0" d="M155.1,196.3c0.4,1.8-0.7,2.7-1.8,3.6c-1.1,0.8-2.3,1.3-3.5,0.8c-0.8-0.3-0.6-1.1-0.3-1.8
	c0.6-1.2,0.7-2.8,2.9-2.5C153.2,196.5,154.1,196.3,155.1,196.3z"/>
<path class="st0" d="M182.8,77.3c3.5,0.1,6.5,0.5,9.6,1.6c8.3,2.9,10.9,12.4,5,18.7c-4,4.4-9.7,7-14.4,10.6
	c-2.3,1.7-5.4,0.5-7.8-0.8c-4-2.3-8.1-3.9-13-3.9c-4.3-0.1-5.8-2.7-4.2-6.6c1.6-3.9,3.4-7.6,5.2-11.4c1.4-2.8,3.8-4.4,6.8-5.6
	C174.1,78.2,178.6,77.6,182.8,77.3z"/>
<path class="st0" d="M32.3,150.7c1.6,0.5,2.4,1.5,2.6,3c0.1,0.9,0.3,2-1.3,2.1c-1.7,0-2.4-0.9-2.5-2.3
	C31.1,152.5,30.9,151.3,32.3,150.7z"/>
<path class="st0" d="M218.6,124c-1.4-0.2-2.1-0.9-1.8-2.3c0.2-1.2,0.9-2.1,2.3-2c1.9,0.1,0.9,1.6,1.1,2.5
	C220.3,123.3,220.1,124.3,218.6,124z"/>
<path class="st0" d="M47.9,102.7c-0.3,0.7,0.6,2.2-1.1,2c-1.4-0.1-1.6-1.4-1.7-2.5c-0.1-0.9,0-1.6,1.2-1.7
	C48.2,100.3,47.8,101.6,47.9,102.7z"/>
</svg>
