<?xml version="1.0" encoding="utf-8"?>
<!-- Generator: Adobe Illustrator 19.2.1, SVG Export Plug-In . SVG Version: 6.00 Build 0)  -->
<svg version="1.1" id="Layer_1" xmlns="http://www.w3.org/2000/svg" xmlns:xlink="http://www.w3.org/1999/xlink" x="0px" y="0px"
	 viewBox="0 0 430 430" style="enable-background:new 0 0 430 430;" xml:space="preserve">
<style type="text/css">
	.st0{fill:#FFFFFF;}
	.st1{fill:#C4B2AD;}
	.st2{fill:#96827C;}
	.st3{fill:#E8E3E2;}
	.st4{fill:#383838;}
	.st5{fill:#EAD48C;}
	.st6{fill:#424242;}
	.st7{opacity:0.17;fill:#FFFFFF;}
	.st8{fill:#E0E0E0;}
	.st9{opacity:0.43;fill:#FFFFFF;}
	.st10{fill:#F94646;}
</style>
<g id="sloth_3_">
	<path class="st0" d="M174.6,19.6c35.7,27.9,42.1,79.5,14.2,115.2S109.2,176.9,73.4,149S31.4,69.5,59.3,33.8S138.8-8.3,174.6,19.6z"
		/>
	<path class="st1" d="M168.4,42.6C168.4,42.6,168.4,42.6,168.4,42.6c1.8,1.6,3.4,3.3,4.8,5.2c3.9,5,6.7,9.3,8.8,12.9
		c6.1,11,5.7,17.1,8.9,25c1.6,3.8,3.2,7.1,4.9,10c5.8,9.8,12.6,15,21.7,21.2c0,0,0.1,0,0.1,0.1c1.3,0.9,2.6,1.7,3.9,2.6
		c17,11.3,34.5,21.9,51.9,32.6c3.4,2,6.7,4.1,10.1,6.1c1.9,1.2,3.9,2.4,5.8,3.6c26.5,16.3,41.8,32.5,48.4,48.3
		c1.5,3.6,2.6,7.2,3.2,10.7c1.9,10.3,0.3,20.5-4.1,30.5c-3.5,8-8.7,15.9-15.4,23.6c-8.2,9.5-18.4,18.8-30,27.9
		c-5.4,4.2-10.4,7.9-15.3,11.2c-8.1,5.5-15.6,9.7-22.5,12.6c-14.5,6.1-26.7,6.5-38.1,1c-0.5-0.3-1.1-0.5-1.6-0.8
		c-12.4-6.7-23.9-20.4-36.5-41.6c-6.1-10.3-10.6-21.9-14.8-33.9c-1.7-5-3.4-10-5-15.1c-6.1-18.8-12.5-37.6-23.3-53.1
		c-0.1-0.1-0.2-0.3-0.3-0.4c-3.5-5-7.5-9.6-12.1-13.8c-0.3-0.3-0.7-0.6-1-0.9c-11.4-10.1-24.6-17.7-35.7-28.2
		c-5.1-4.9-9.7-10.3-13.3-16.8c-0.7-1.3-1.4-2.6-2-4C56.7,91,71.2,63.2,94.6,44.9C117,27.4,149.6,25.6,168.4,42.6z"/>
	<path class="st2" d="M133.6,138.1c0.5,0,1.1-0.1,1.6-0.1c12.3-0.2,24.6,2.3,35.8,7.2c-1.3-3.3-2.7-6.5-4-9.8
		c-0.3-0.8-0.6-1.8-0.1-2.4c0.5-0.6,1.3-0.6,2.1-0.6c5.5,0.1,11.1,0.3,16.6,0.4c-2.3-0.1-5.4-23.7-5.7-26.3c-1.1-9,0-18.3-1.3-27.1
		c-0.8-5.8-2.3-12.4-7.6-14.9c-4.2-1.9-9.1-0.4-13.3,1.3c-17,7-32.8,16.9-46.5,29.1c-5.5,4.9-10.7,10.3-14.6,16.6
		c-2.8,4.6-5.5,10.4-5.7,15.9c-0.2,5.7,4.3,7,9.2,8.7c5.9,2,12.1,2.8,18.2,3.1C123.7,139.5,128.5,138.4,133.6,138.1z"/>
	<path class="st3" d="M74.9,110.9c0.5,1.8,1.1,3.5,1.9,5.2c3.8,8.6,11.1,16,20.3,18.4c10.7,2.8,21.7-1.3,31.1-6.3
		c11.5-6,22.2-13.3,31.3-22.7c11.3-11.6,23.2-29.5,16.2-46.3c-9.2-22.1-38.6-18.6-56.3-10.6c-10.1,4.6-18.7,11.6-26.7,19.1
		C85.3,74.6,78,80.8,75,90.8C73,97.4,73,104.3,74.9,110.9z"/>
	<path class="st1" d="M111.3,86.1c1.8,2.4,1.9,5.8,1,8.7c-0.9,2.9-2.7,5.4-4.3,8c-7.1,11-11.2,18.8-12.6,25.9
		c-2.5-5.9-5.3-12.1-6.1-17.4c-1.5-10.4,0.3-23.9,11.8-27.7C104.7,82.4,109.1,83.1,111.3,86.1z"/>
	<path class="st1" d="M129.1,72.2c1.9,2.4,5.2,3.3,8.2,3.1c3-0.2,5.9-1.3,8.8-2.2c12.4-4.2,21-6.3,28.2-5.9
		C169.2,63.3,163.9,59,159,57c-9.7-3.9-23.3-5.5-29.8,4.7C127.2,64.9,126.8,69.3,129.1,72.2z"/>
	<ellipse transform="matrix(0.6935 -0.7205 0.7205 0.6935 -38.6063 101.8462)" class="st4" cx="100.4" cy="96.3" rx="7" ry="4"/>
	<ellipse transform="matrix(0.8668 -0.4986 0.4986 0.8668 -13.4124 78.9047)" class="st4" cx="141" cy="64.6" rx="7" ry="4"/>
	<path class="st1" d="M60.9,77.9c1-7.4,5.7-14.2,12.2-17.9c-3.4,0.1-6.7,1.1-9.7,2.7c1.4-3.5,4.2-6.4,7.4-8.4
		c3.2-2,6.8-3.4,10.3-4.7c-2.8-1-5.9-1-8.8-0.1c5.5-3.8,12.2-5.7,18.8-5.2C89,39.2,89.5,33,92.4,28.2c0.3,3.2,0.7,6.5,1,9.7
		c0-3.8,2.4-7.3,5.5-9.5c3.1-2.2,6.4-4.1,10.4-4.5c-3.1,2.4-5.4,5.9-6.5,9.7c2.4-3.8,6.5-6.4,10.9-7.8c4.3-1.4,8.9-1.7,13.5-1.8
		c-4.3,2.5-7.8,6.6-9.5,11.3c6.3-4.8,14-7.7,21.9-8.1c-2.1,2.5-4.3,4.9-7,6.8c-2,1.5-4.3,2.5-6.6,3.6c-9.5,4.5-18.8,9.3-27.7,14.9
		c-4.5,2.8-8.8,5.8-12.9,9.1c-3.4,2.7-6.2,6.4-10.4,7.5C69.8,70.5,64.7,74.2,60.9,77.9z"/>
	<path class="st0" d="M98.4,96.1c-0.8,1.3-0.8,4.3,1,2.7c0.3-0.3,0.5-0.7,0.7-1.1c0.2-0.6,0.4-1.3,0-1.7
		C99.3,95.3,98.8,95.5,98.4,96.1z"/>
	<path class="st0" d="M102.1,93.2c-2-1.1-1.6,3,0.1,1.5C102.7,94.4,102.7,93.5,102.1,93.2z"/>
	<path class="st0" d="M138.8,64.3c-1,1.1-1.4,4.2,0.6,2.8c0.4-0.2,0.6-0.6,0.8-1c0.3-0.5,0.6-1.2,0.2-1.7
		C139.8,63.6,139.2,63.8,138.8,64.3z"/>
	<path class="st0" d="M142.9,62c-1.8-1.4-2,2.8-0.1,1.6C143.4,63.2,143.4,62.4,142.9,62z"/>
	<path class="st2" d="M93.6,100.8c0,0,0,0,0.1,0.1c0,0.1,0.1,0.2,0.2,0.4c0.2,0.3,0.4,0.7,0.8,1c0.2,0.2,0.4,0.3,0.7,0.5
		c0.3,0.2,0.6,0.3,0.9,0.3c0.3,0.1,0.6,0.1,1,0.1c0.2,0,0.4,0,0.5,0c0.2,0,0.4,0,0.5-0.1c0.3,0,0.7-0.2,1-0.3
		c0.3-0.1,0.6-0.3,0.9-0.4c0.3-0.2,0.6-0.3,0.9-0.5c0.3-0.2,0.5-0.3,0.8-0.5c0.5-0.3,0.9-0.6,1.2-0.8c0.3-0.2,0.5-0.3,0.5-0.3
		s-0.1,0.2-0.3,0.5c-0.2,0.3-0.5,0.7-0.9,1.1c-0.4,0.4-0.9,0.9-1.5,1.4c-0.3,0.2-0.7,0.4-1,0.6c-0.4,0.2-0.8,0.3-1.2,0.4
		c-0.2,0-0.4,0.1-0.6,0.1c-0.3,0-0.4,0-0.7,0c-0.4,0-0.8-0.1-1.2-0.3c-0.8-0.3-1.4-0.8-1.7-1.4c-0.4-0.5-0.5-1-0.6-1.4
		c0-0.2,0-0.3,0-0.4C93.6,100.8,93.6,100.8,93.6,100.8z"/>
	<path class="st2" d="M144.3,68.5c0,0,0.1-0.1,0.4-0.3c0.2-0.2,0.6-0.5,1-0.8c0.4-0.3,0.9-0.7,1.3-1.2c0.4-0.4,0.8-1,1.2-1.5
		c0.2-0.3,0.3-0.6,0.4-0.8c0.1-0.3,0.2-0.6,0.3-0.9c0.1-0.3,0.1-0.6,0.1-0.9c0-0.3,0-0.5,0-0.8c0-0.2-0.1-0.5-0.1-0.7
		c-0.1-0.2-0.1-0.4-0.2-0.5c-0.1-0.3-0.2-0.5-0.2-0.5s0,0,0.1,0.1c0.1,0.1,0.2,0.1,0.3,0.3c0.1,0.1,0.2,0.3,0.4,0.5
		c0.1,0.2,0.3,0.4,0.3,0.7c0.2,0.5,0.3,1.2,0.3,2c0,0.4-0.1,0.7-0.2,1.1c-0.1,0.4-0.3,0.7-0.5,1.1c-0.4,0.7-0.9,1.2-1.5,1.7
		c-0.6,0.4-1.1,0.8-1.6,1c-0.5,0.2-0.9,0.4-1.3,0.4C144.5,68.4,144.3,68.5,144.3,68.5z"/>
	<path class="st1" d="M137.3,82.7c-0.8,0.4-10.5-7-16.3-2.5c-5.7,4.5-2.4,17-2.6,17.1C123.5,92,130.9,86.4,137.3,82.7z"/>
	<ellipse transform="matrix(0.788 -0.6156 0.6156 0.788 -28.6573 98.1935)" class="st4" cx="128.3" cy="90.7" rx="12.2" ry="4.7"/>
	<path class="st4" d="M118.1,105.3c0,0,0,0,0,0.1c0,0.1-0.1,0.2-0.1,0.4c-0.1,0.3-0.2,0.9,0,1.4c0.2,0.6,0.8,1,1.7,1.2
		c0.8,0.2,1.8,0.1,2.9-0.2c1.1-0.3,2.2-0.7,3.4-1.2c1.2-0.5,2.4-1.2,3.6-1.9c1.2-0.7,2.4-1.6,3.7-2.4c1.2-0.8,2.4-1.8,3.6-2.7
		c0.6-0.5,1.2-0.9,1.8-1.4c0.6-0.5,1.1-1,1.7-1.5c1.1-1,2.2-2,3.1-3c0.9-1,1.8-2.1,2.5-3.1c0.7-1.1,1.2-2.1,1.5-3.1
		c0.1-0.5,0.2-1,0.2-1.5c0-0.5-0.1-0.9-0.2-1.3c-0.3-0.8-0.8-1.4-1.3-1.8c-0.5-0.4-1-0.5-1.4-0.6c-0.2,0-0.3-0.1-0.4-0.1
		c-0.1,0-0.1,0-0.1,0s0,0,0.1,0c0.1,0,0.2,0,0.4,0c0.4,0,0.9,0,1.6,0.4c0.6,0.3,1.4,0.9,1.9,1.8c0.5,0.9,0.7,2.2,0.5,3.4
		c-0.1,0.6-0.3,1.3-0.5,1.9c-0.2,0.6-0.5,1.3-0.9,1.9c-0.7,1.2-1.5,2.4-2.5,3.6c-1,1.1-2,2.3-3.2,3.3c-0.6,0.5-1.2,1-1.8,1.6
		c-0.6,0.5-1.2,1-1.8,1.5c-1.3,0.9-2.5,1.9-3.8,2.7c-1.3,0.9-2.6,1.6-3.9,2.3c-1.3,0.7-2.6,1.3-3.9,1.7c-1.3,0.5-2.6,0.8-3.8,0.9
		c-1.2,0.2-2.4,0.1-3.4-0.3c-0.5-0.2-0.9-0.4-1.3-0.8c-0.3-0.3-0.5-0.7-0.6-1.1c-0.1-0.8,0.1-1.3,0.3-1.6c0.1-0.2,0.2-0.3,0.2-0.4
		C118.1,105.4,118.1,105.3,118.1,105.3z"/>
	<path class="st1" d="M103.2,57.4c-3.4,5.3-6.9,10.7-10.3,16c-0.1-3.7,0.5-7.3,1.8-10.8c-4.1,6.1-7.6,12.7-10.3,19.6
		c-1.5-2.9-1.9-6.3-1.1-9.5c-2.7,6.8-4.6,13.9-5.6,21.2c-1.9-2.5-3.2-5.5-3.8-8.6L103.2,57.4z"/>
	<path class="st1" d="M103.3,57.5c4.4-2.6,10-3,14.7-1c-1.5-2.1-3.8-3.6-6.2-4.1c5.7-2.6,12.3-1.4,18.5-0.1
		c-1.2-2.7-3.3-4.9-5.9-6.4c6.9-2.2,14.8-0.7,20.4,3.8c0.7-3.6-2.1-7.2-5.6-8.5c-3.4-1.3-7.2-1-10.9-0.6c-3.3,0.3-6.6,0.7-10,1
		L103.3,57.5z"/>
	<g>
		<path class="st5" d="M27.4,309.9c-6.4,14.7-11.8,29.6-13.9,45.5C3.2,340.9-0.8,322.3,2.7,304.9C10.9,299.9,21.2,302.6,27.4,309.9z
			"/>
		<path class="st6" d="M19.8,309.4c0,0-0.3,0.6-0.7,1.7c-0.2,0.5-0.5,1.2-0.8,1.9c-0.2,0.4-0.3,0.8-0.5,1.2
			c-0.2,0.4-0.3,0.9-0.5,1.3c-0.4,0.9-0.7,1.9-1.1,3c-0.2,0.5-0.4,1.1-0.5,1.6c-0.2,0.6-0.4,1.1-0.5,1.7c-0.3,1.2-0.7,2.4-1,3.6
			c-0.3,1.2-0.6,2.5-0.8,3.8c-0.2,1.3-0.5,2.6-0.6,3.8c-0.1,0.6-0.2,1.3-0.2,1.9c-0.1,0.6-0.1,1.2-0.2,1.8c-0.1,0.6,0,1.2-0.1,1.8
			c0,0.6-0.1,1.2,0,1.7c0,1.1,0,2.2,0.1,3.1c0,0.5,0.1,1,0.1,1.4c0,0.4,0.1,0.9,0.1,1.3c0.1,0.8,0.2,1.5,0.3,2
			c0.2,1.1,0.3,1.8,0.3,1.8s-0.2-0.6-0.5-1.7c-0.2-0.6-0.3-1.2-0.5-2c-0.1-0.4-0.2-0.8-0.3-1.3c-0.1-0.4-0.1-0.9-0.2-1.4
			c-0.2-1-0.2-2.1-0.3-3.2c0-0.6,0-1.2,0-1.7c0-0.6,0-1.2,0-1.8c0.1-1.2,0.1-2.5,0.3-3.8c0.1-1.3,0.4-2.6,0.6-3.9
			c0.3-1.3,0.5-2.6,0.9-3.8c0.3-1.3,0.7-2.5,1.1-3.7c0.4-1.2,0.8-2.3,1.2-3.3c0.4-1.1,0.8-2,1.3-2.9c0.2-0.4,0.4-0.9,0.6-1.3
			c0.2-0.4,0.4-0.8,0.6-1.1c0.4-0.7,0.7-1.3,1-1.8C19.5,309.9,19.8,309.4,19.8,309.4z"/>
		<path class="st6" d="M7.6,306.6c0,0-0.1,0.7-0.2,1.9c-0.1,1.2-0.3,2.9-0.5,5c-0.1,1-0.2,2.2-0.2,3.3c0,0.6-0.1,1.2-0.1,1.8
			c0,0.6-0.1,1.3-0.1,1.9c0,0.6,0,1.3,0,2c0,0.7,0,1.3,0,2c0,0.7,0.1,1.4,0.1,2c0,0.7,0.1,1.4,0.2,2.1c0.1,0.7,0.1,1.4,0.2,2
			c0.1,0.7,0.2,1.4,0.3,2c0.2,1.3,0.4,2.7,0.7,3.9c0.1,0.6,0.3,1.3,0.4,1.9c0.1,0.6,0.3,1.2,0.4,1.8c0.1,0.6,0.3,1.1,0.4,1.7
			c0.1,0.5,0.3,1.1,0.4,1.6c0.3,1,0.5,1.9,0.7,2.7c0.2,0.8,0.4,1.5,0.6,2.1c0.3,1.2,0.5,1.8,0.5,1.8s-0.3-0.6-0.7-1.8
			c-0.2-0.6-0.5-1.2-0.8-2c-0.3-0.8-0.6-1.7-1-2.7c-0.3-1-0.7-2.1-1-3.2c-0.2-0.6-0.3-1.2-0.5-1.8c-0.2-0.6-0.3-1.2-0.5-1.9
			c-0.2-0.6-0.3-1.3-0.4-1.9c-0.1-0.7-0.3-1.3-0.4-2c-0.1-0.7-0.2-1.4-0.3-2.1c-0.1-0.7-0.2-1.4-0.2-2.1c-0.1-0.7-0.1-1.4-0.1-2.1
			c0-0.7-0.1-1.4-0.1-2.1c0-0.7,0-1.4,0-2c0-0.7,0-1.3,0.1-2c0-0.7,0.1-1.3,0.1-1.9c0-0.6,0.1-1.2,0.2-1.8c0.1-0.6,0.1-1.2,0.2-1.7
			c0.1-0.6,0.2-1.1,0.2-1.6c0.1-1,0.3-2,0.5-2.8c0.2-0.8,0.3-1.6,0.4-2.2C7.5,307.3,7.6,306.6,7.6,306.6z"/>
	</g>
	<g>
		<path class="st5" d="M301.7,393.2c9.2,13.1,19.1,25.5,31.5,35.6c-17.6,1.2-35.7-5.2-48.7-17.2
			C284.6,402.1,292.3,394.7,301.7,393.2z"/>
		<path class="st6" d="M297.3,399.4c0,0,0.4,0.5,1,1.5c0.3,0.5,0.7,1,1.2,1.7c0.2,0.3,0.5,0.7,0.7,1c0.3,0.4,0.6,0.7,0.9,1.1
			c0.6,0.8,1.3,1.6,2,2.5c0.3,0.4,0.7,0.9,1.1,1.3c0.4,0.4,0.8,0.9,1.2,1.4c0.8,0.9,1.7,1.8,2.6,2.7c0.9,0.9,1.8,1.8,2.8,2.7
			c1,0.9,1.9,1.7,2.9,2.5c0.5,0.4,1,0.8,1.5,1.2c0.5,0.4,1,0.7,1.5,1.1c0.5,0.4,1,0.7,1.5,1c0.5,0.3,1,0.7,1.4,0.9
			c1,0.6,1.9,1.1,2.7,1.6c0.4,0.2,0.8,0.5,1.2,0.7c0.4,0.2,0.8,0.4,1.1,0.5c0.7,0.3,1.3,0.6,1.9,0.8c1.1,0.4,1.7,0.7,1.7,0.7
			s-0.6-0.2-1.7-0.5c-0.6-0.1-1.2-0.4-2-0.7c-0.4-0.1-0.8-0.3-1.2-0.4c-0.4-0.2-0.8-0.4-1.3-0.6c-0.9-0.4-1.9-0.9-2.9-1.4
			c-0.5-0.3-1-0.6-1.5-0.9c-0.5-0.3-1-0.6-1.5-1c-1-0.7-2.1-1.4-3.1-2.2c-1-0.8-2-1.7-3-2.5c-1-0.9-1.9-1.8-2.8-2.8
			c-0.9-0.9-1.7-1.9-2.6-2.8c-0.8-1-1.5-1.9-2.2-2.8c-0.7-0.9-1.3-1.8-1.8-2.6c-0.3-0.4-0.5-0.8-0.8-1.2c-0.2-0.4-0.4-0.8-0.7-1.1
			c-0.4-0.7-0.8-1.3-1-1.8C297.6,400,297.3,399.4,297.3,399.4z"/>
		<path class="st6" d="M288.6,408.4c0,0,0.6,0.4,1.5,1.2c1,0.8,2.3,1.8,4,3c0.8,0.6,1.8,1.3,2.7,1.9c0.5,0.3,1,0.7,1.5,1
			c0.5,0.3,1,0.7,1.6,1c0.5,0.3,1.1,0.7,1.7,1c0.6,0.3,1.2,0.7,1.7,1c0.6,0.3,1.2,0.7,1.8,1c0.6,0.3,1.2,0.6,1.8,0.9
			c0.6,0.3,1.2,0.6,1.9,0.9c0.6,0.3,1.3,0.6,1.9,0.8c1.3,0.5,2.5,1,3.7,1.5c0.6,0.2,1.2,0.4,1.8,0.6c0.6,0.2,1.2,0.4,1.7,0.6
			c0.6,0.2,1.1,0.4,1.6,0.5c0.5,0.2,1,0.3,1.5,0.5c1,0.3,1.9,0.6,2.7,0.8c0.8,0.2,1.5,0.4,2.1,0.6c1.2,0.3,1.8,0.5,1.8,0.5
			s-0.7-0.1-1.9-0.3c-0.6-0.1-1.3-0.2-2.2-0.4c-0.8-0.2-1.8-0.3-2.8-0.6c-1-0.3-2.1-0.5-3.3-0.8c-0.6-0.2-1.2-0.3-1.8-0.5
			c-0.6-0.2-1.2-0.4-1.8-0.6c-0.6-0.2-1.3-0.4-1.9-0.7c-0.6-0.2-1.3-0.5-1.9-0.7c-0.6-0.3-1.3-0.5-1.9-0.8c-0.6-0.3-1.3-0.6-1.9-0.9
			c-0.6-0.3-1.2-0.6-1.9-1c-0.6-0.3-1.2-0.7-1.8-1c-0.6-0.4-1.2-0.7-1.7-1.1c-0.6-0.4-1.1-0.7-1.7-1.1c-0.5-0.4-1.1-0.7-1.6-1.1
			c-0.5-0.4-1-0.7-1.5-1.1c-0.5-0.4-0.9-0.7-1.4-1.1c-0.4-0.4-0.9-0.7-1.3-1c-0.8-0.7-1.5-1.3-2.1-1.9c-0.6-0.6-1.2-1.1-1.6-1.5
			C289.1,408.9,288.6,408.4,288.6,408.4z"/>
	</g>
	<path class="st1" d="M176.2,208.9c1,8.7-0.4,17.5-3.6,25.7c-2.4,6.1-5.8,11.8-10,16.9c-5.2,6.2-11.5,11.5-18.6,15.3
		c-17.9,9.5-39,10.3-59.1,13.2c-20.1,2.9-41.5,9-53.6,25.3c-1.1,1.5-2.1,3-3.1,4.6c-1.9,2.8-3.8,5.5-6.5,7.4
		c-4.1,3.1-9.3,1.1-13.2-2.3c-10-8.9-9.3-25.6-1.7-36.5c7.6-11,20.3-17.2,32.9-21.6c12.9-4.5,26.2-4.9,38.7-9.2
		c14.8-5,28.2-14.6,38-26.6c8.4-10.3,15.3-23.9,17.9-37.8c1.1-5.9,1.5-11.8,0.8-17.6c0,0,0,0,0,0C158.9,162.6,174,189,176.2,208.9z"
		/>
	<g>
		<path class="st5" d="M367.8,43.9c15.8-2.7,31.6-4.3,47.5-2.6C403.8,28,386.6,19.6,369,18.8C362.1,25.5,362.2,36.2,367.8,43.9z"/>
		<path class="st6" d="M369.2,36.4c0,0,0.6-0.2,1.7-0.5c0.5-0.2,1.2-0.3,2-0.5c0.4-0.1,0.8-0.2,1.2-0.3c0.4-0.1,0.9-0.2,1.4-0.3
			c1-0.2,2-0.4,3.1-0.5c1.1-0.2,2.3-0.3,3.5-0.4c1.2-0.1,2.5-0.2,3.8-0.2c1.3,0,2.6,0,3.9,0.1c1.3,0.1,2.6,0.2,3.9,0.4
			c1.3,0.1,2.6,0.4,3.8,0.6c0.6,0.1,1.2,0.3,1.8,0.4c0.6,0.2,1.1,0.3,1.7,0.5c1.1,0.3,2.1,0.7,3,1c0.5,0.2,0.9,0.4,1.3,0.5
			c0.4,0.2,0.8,0.4,1.2,0.6c0.7,0.3,1.4,0.6,1.9,0.9c1,0.6,1.6,0.9,1.6,0.9s-0.6-0.3-1.7-0.7c-0.5-0.2-1.2-0.5-1.9-0.8
			c-0.4-0.1-0.8-0.3-1.2-0.4c-0.4-0.1-0.9-0.3-1.3-0.4c-0.9-0.3-2-0.6-3-0.8c-0.5-0.2-1.1-0.2-1.7-0.4c-0.6-0.1-1.2-0.3-1.8-0.3
			c-0.6-0.1-1.2-0.2-1.8-0.3c-0.6-0.1-1.3-0.1-1.9-0.2c-1.3-0.2-2.6-0.2-3.9-0.3c-1.3-0.1-2.6-0.1-3.9-0.1c-1.3,0-2.5,0-3.8,0.1
			c-0.6,0-1.2,0.1-1.8,0.1c-0.6,0-1.2,0.1-1.7,0.1c-1.1,0.1-2.2,0.2-3.1,0.3c-0.5,0.1-1,0.1-1.4,0.2c-0.4,0.1-0.9,0.1-1.3,0.2
			c-0.8,0.1-1.5,0.2-2,0.3C369.8,36.3,369.2,36.4,369.2,36.4z"/>
		<path class="st6" d="M369.4,24c0,0,0.7,0,1.9,0.1c0.6,0,1.3,0.1,2.2,0.1c0.8,0,1.8,0.1,2.8,0.2c0.5,0.1,1.1,0.1,1.6,0.2
			c0.6,0.1,1.1,0.2,1.7,0.2c0.6,0.1,1.2,0.2,1.8,0.3c0.6,0.1,1.3,0.2,1.9,0.3c0.6,0.1,1.3,0.3,2,0.4c0.7,0.1,1.3,0.3,2,0.5
			c0.7,0.2,1.3,0.4,2,0.6c0.7,0.2,1.3,0.4,2,0.6c0.7,0.2,1.3,0.5,2,0.7c0.6,0.3,1.3,0.5,1.9,0.8c0.6,0.3,1.2,0.6,1.9,0.8
			c0.6,0.3,1.2,0.6,1.8,0.9c0.6,0.3,1.2,0.6,1.7,0.9c0.5,0.3,1.1,0.6,1.6,0.9c1.1,0.6,2,1.2,2.9,1.8c0.9,0.6,1.7,1.1,2.4,1.6
			c0.7,0.5,1.3,0.9,1.8,1.3c1,0.7,1.5,1.1,1.5,1.1s-0.6-0.3-1.7-1c-0.5-0.3-1.1-0.7-1.9-1.1c-0.7-0.4-1.6-0.9-2.5-1.4
			c-0.5-0.2-0.9-0.5-1.4-0.8c-0.5-0.3-1-0.5-1.5-0.8c-0.5-0.3-1.1-0.5-1.6-0.8c-0.6-0.3-1.1-0.5-1.7-0.8c-1.2-0.6-2.4-1.1-3.6-1.6
			c-0.6-0.2-1.3-0.5-1.9-0.8c-0.6-0.2-1.3-0.5-1.9-0.7c-0.6-0.2-1.3-0.4-2-0.7c-0.7-0.2-1.3-0.4-2-0.6c-0.7-0.2-1.3-0.4-1.9-0.5
			c-0.6-0.2-1.3-0.3-1.9-0.5c-0.6-0.2-1.3-0.3-1.9-0.4c-0.6-0.1-1.2-0.3-1.8-0.4c-1.2-0.2-2.3-0.4-3.3-0.6c-2-0.3-3.8-0.6-5-0.8
			C370.1,24.1,369.4,24,369.4,24z"/>
	</g>
	<path class="st1" d="M377.3,26.9c2.4,4.6,3.1,10.1-0.9,13.4c-2.6,2.1-5.8,3.4-9,4.6c-1.7,0.6-3.4,1.2-5,1.9
		c-18.8,7.8-29.9,27-37.5,45.8c-7.6,18.8-13.5,39-27.1,54.1c-4.1,4.6-9,8.5-14.3,11.6c-3.9,2.3-8.1,4.2-12.4,5.7
		c-12.1,4.1-25.4,4.4-37.3-0.1c-9.5-3.5-19.8-10.7-26.6-19.7c-6.6-8.9-9.8-19.5-5.5-30.5c0,0,0,0,0,0c5,1.9,10.4,2.9,15.9,3.3
		c2.2,0.2,4.4,0.2,6.7,0.2c12.4-0.2,25.2-3.4,35.7-8.3c14.1-6.6,26.6-17.3,35-30.5c7.1-11.1,10.7-23.9,18.2-35.3
		c7.3-11.1,16.5-21.9,28.9-26.7C354.7,11.7,371.1,15.1,377.3,26.9z"/>
	<path class="st1" d="M274.3,258.9c0.9,5.6,1.3,11.3,1.4,17c0.1,6.5,0,13-0.1,19.5c0,2,0,4,0.1,6.1c0.1,4.2,0.3,8.4,0.5,12.6
		c1.5,24.2,6.4,48,21.9,72.4c1.2,1.9,2.5,3.8,3.6,5.9c0,0,0,0,0,0c1.9,3.5,3.2,7.3,2.6,11.3c-1.1,6.5-7.1,11.1-13.5,11.3
		c-9,0.3-23-15.5-29.3-21.3c-19.6-18.5-35.4-41.1-45.9-66c-0.2-0.5-0.4-1.1-0.7-1.6c-8.7-21.1-13.6-45.1-5.8-66.5
		c3.6-9.8,10.8-19.2,19.9-25.6c5.2-3.7,11.1-6.3,17.1-7.5C264.2,223.1,271.7,243.4,274.3,258.9z"/>
	<g>
		<path class="st5" d="M393.1,296.7c13.5,8.6,26.4,17.9,37,29.9c0.4-17.7-6.8-35.4-19.3-47.8C401.1,279.2,394.1,287.2,393.1,296.7z"
			/>
		<path class="st6" d="M399,292c0,0,0.6,0.3,1.6,0.8c0.5,0.2,1.1,0.6,1.8,0.9c0.4,0.2,0.7,0.4,1.1,0.6c0.4,0.2,0.8,0.5,1.2,0.7
			c0.9,0.5,1.8,1.1,2.7,1.7c0.9,0.6,1.9,1.3,2.9,2.1c1,0.8,2,1.5,2.9,2.4c1,0.8,1.9,1.8,2.9,2.7c0.9,1,1.8,1.9,2.7,2.9
			c0.9,1,1.6,2,2.4,3c0.4,0.5,0.7,1,1,1.5c0.3,0.5,0.7,1,0.9,1.5c0.6,1,1.1,1.9,1.6,2.8c0.2,0.4,0.4,0.9,0.6,1.3
			c0.2,0.4,0.3,0.8,0.5,1.2c0.3,0.7,0.6,1.4,0.7,1.9c0.4,1.1,0.6,1.7,0.6,1.7s-0.3-0.6-0.8-1.6c-0.2-0.5-0.5-1.1-0.9-1.8
			c-0.2-0.4-0.4-0.7-0.6-1.1c-0.2-0.4-0.5-0.8-0.7-1.2c-0.5-0.9-1.1-1.7-1.7-2.6c-0.3-0.5-0.7-0.9-1-1.4c-0.4-0.5-0.7-1-1.1-1.4
			c-0.4-0.5-0.8-1-1.2-1.4c-0.4-0.5-0.8-0.9-1.2-1.4c-0.8-1-1.8-1.9-2.6-2.8c-0.9-0.9-1.8-1.8-2.8-2.7c-0.9-0.9-1.9-1.7-2.8-2.5
			c-0.5-0.4-1-0.7-1.4-1.1c-0.5-0.4-0.9-0.7-1.4-1.1c-0.9-0.7-1.7-1.3-2.6-1.9c-0.4-0.3-0.8-0.6-1.2-0.8c-0.4-0.2-0.7-0.5-1.1-0.7
			c-0.7-0.4-1.2-0.8-1.7-1.1C399.6,292.4,399,292,399,292z"/>
		<path class="st6" d="M407.6,283c0,0,0.5,0.5,1.4,1.3c0.4,0.4,1,0.9,1.6,1.5c0.6,0.6,1.3,1.3,2,2.1c0.4,0.4,0.7,0.8,1.1,1.2
			c0.4,0.4,0.7,0.9,1.1,1.3c0.4,0.5,0.8,0.9,1.2,1.4c0.4,0.5,0.8,1,1.2,1.5c0.4,0.5,0.8,1.1,1.2,1.6c0.4,0.5,0.8,1.1,1.1,1.7
			c0.4,0.6,0.7,1.2,1.1,1.8c0.4,0.6,0.7,1.2,1.1,1.8c0.3,0.6,0.7,1.2,1,1.9c0.3,0.6,0.6,1.3,0.9,1.9c0.3,0.6,0.6,1.3,0.8,1.9
			c0.3,0.6,0.5,1.2,0.7,1.8c0.2,0.6,0.5,1.2,0.7,1.8c0.2,0.6,0.4,1.2,0.6,1.7c0.4,1.1,0.7,2.2,1,3.2c0.3,1,0.5,1.9,0.7,2.8
			c0.2,0.8,0.3,1.5,0.5,2.1c0.2,1.2,0.4,1.9,0.4,1.9s-0.2-0.7-0.6-1.8c-0.2-0.6-0.4-1.3-0.7-2.1c-0.3-0.8-0.6-1.7-0.9-2.7
			c-0.2-0.5-0.4-1-0.5-1.5c-0.2-0.5-0.4-1.1-0.6-1.6c-0.2-0.6-0.4-1.1-0.7-1.7c-0.2-0.6-0.5-1.2-0.7-1.8c-0.5-1.2-1.1-2.4-1.6-3.6
			c-0.3-0.6-0.6-1.2-0.9-1.8c-0.3-0.6-0.7-1.2-1-1.8c-0.3-0.6-0.7-1.2-1-1.8c-0.3-0.6-0.7-1.2-1.1-1.7c-0.4-0.6-0.7-1.1-1.1-1.7
			c-0.4-0.5-0.7-1.1-1.1-1.6c-0.4-0.5-0.8-1-1.1-1.5c-0.4-0.5-0.7-1-1.1-1.5c-0.7-0.9-1.4-1.8-2.1-2.6c-1.3-1.6-2.4-3-3.2-3.9
			C408,283.5,407.6,283,407.6,283z"/>
	</g>
	<path class="st1" d="M391.8,256.5c6.2,6,22.5,19.2,22.6,28.3c0.1,6.4-4.3,12.7-10.7,14c-3.9,0.8-7.7-0.3-11.3-2
		c-2.2-1-4.3-2.3-6.2-3.4c-22.1-12.7-43.4-17.1-64.8-18.3c-7.1-0.4-14.1-0.4-21.2-0.2c-1.1,0-2.2,0.1-3.3,0.1
		c-7.1,0.3-14.2,0.8-21.3,1c-6,0.2-12.1,0.1-18.1-0.6c-15.6-1.9-36.2-8.5-33.6-26.7c0.7-5,2.5-10,5-14.6
		c5.9-10.6,15.8-19.5,26.4-23.9c21.1-8.7,45.3-4.9,66.7,2.8c6.4,2.3,12.7,4.9,18.8,7.9C359.6,230,376.9,242,391.8,256.5z"/>
	<path class="st2" d="M224.3,117.2c0,0-0.1,0.1-0.1,0.1c-0.8,0.8-1.7,1.6-2.7,2.3c-2.6,1.9-5.4,3.3-8.3,4.7c3.3,3.3,6.7,6.7,10,10
		c-6.6,0.2-11.6,4.6-16,9.8c-2.6,3.1-5,6.6-7.4,9.7c-9.1,11.8-22.2,20.3-36.5,24.4c-4.6,1.3-9.4,2.1-14.3,2.4
		c1.7,4,2.2,8.5,1.5,12.8c-3.7-4.9-9.1-7.3-16.3-10.5c-0.1,0-0.2-0.1-0.3-0.1c-3.5-5-7.5-9.6-12.1-13.8c-0.3-0.3-0.7-0.6-1-0.9
		c5.3-3.4,17.6-2.8,22.6-4.1c8.5-2.3,16.7-6.2,23.3-12.1c15.2-13.7,10.2-32.7,20.6-48.3c2.1-3.2,5-5.9,8.4-7.8
		c5.8,9.8,12.6,15,21.7,21.2c0,0,0.1,0,0.1,0.1C219.9,117.2,222.1,117.2,224.3,117.2z"/>
	<path class="st7" d="M184.8,32.2c27.7,35.4,21.4,86.5-14,114.2c-35.4,27.7-86.6,21.4-114.3-14C28.8,97,35.1,45.9,70.5,18.2
		S157.1-3.2,184.8,32.2z"/>
	<path class="st8" d="M182.6,29.8c19.9,42.7,1.3,93.5-41.5,113.3c-33,15.3-70.7,7.8-95.4-16.1c22.5,36.1,68.9,50.6,108.4,32.3
		c42.8-19.8,61.3-70.6,41.5-113.3c-4.5-9.8-10.7-18.3-18-25.4C179.5,23.5,181.2,26.6,182.6,29.8z"/>
	<path class="st0" d="M185.4,33.2c19.9,42.7,1.3,93.5-41.5,113.3c-33,15.3-70.7,7.8-95.4-16.1c22.5,36.1,68.9,50.6,108.4,32.3
		c42.8-19.8,61.3-70.6,41.5-113.3c-4.5-9.8-10.7-18.3-18-25.4C182.3,26.9,184,30,185.4,33.2z"/>
	<path class="st8" d="M196.4,43.5c-19.1-19-46.3-28-73.1-23.9c-7.8,1.2-15.6,3.5-23.1,7c-21,9.7-36.2,27-43.8,47
		c-7.9,20.8-7.8,44.6,2.3,66.3c1.7,3.6,3.6,7,5.7,10.3c-6.9-6.9-12.8-15.1-17.2-24.5c-9.5-20.5-10.2-42.8-3.6-62.7
		c7.1-21.6,22.8-40.3,45.1-50.6c8.7-4.1,17.8-6.5,26.9-7.5C147.1,1.5,178.7,16.1,196.4,43.5z"/>
	<path class="st0" d="M192.8,39.1c-19.1-19-46.3-28-73.1-23.9c-7.8,1.2-15.6,3.5-23.1,7c-21,9.7-36.2,27-43.8,47
		c-7.9,20.8-7.8,44.6,2.3,66.3c1.7,3.6,3.6,7,5.7,10.3c-6.9-6.9-12.8-15.1-17.2-24.5c-9.5-20.5-10.2-42.8-3.6-62.7
		C47.1,37,62.8,18.3,85.1,8c8.7-4.1,17.8-6.5,26.9-7.5C143.6-2.9,175.2,11.7,192.8,39.1z"/>
	<path class="st9" d="M129,32.7c5.5,6.8-4.9,24.1-23.1,38.8S68.4,92.6,63,85.9c-5.5-6.8,4.9-24.1,23.1-38.8S123.5,25.9,129,32.7z"/>
	<ellipse transform="matrix(0.7785 -0.6277 0.6277 0.7785 -49.1285 68.573)" class="st9" cx="72.6" cy="103.9" rx="13.7" ry="7.8"/>
	<path class="st0" d="M58.1,127.2c7.8,9.7,10.7,20.4,6.4,23.9c-4.3,3.5-14.2-1.6-22-11.3c-7.8-9.7-10.7-20.4-6.4-23.9
		C40.4,112.5,50.3,117.5,58.1,127.2z"/>
	<path class="st8" d="M55.9,146.7c0.5,1.7-1.3,3.1-2.9,2.3c-2.8-1.4-6.7-4.3-10.6-9.1c-3.9-4.8-5.9-9.2-6.7-12.3
		c-0.5-1.7,1.3-3.1,2.9-2.3c2.8,1.4,6.7,4.3,10.6,9.1C53.1,139.3,55.1,143.7,55.9,146.7z"/>
	<path class="st0" d="M191,20.1c7.8,9.7,10.7,20.4,6.4,23.9c-4.3,3.5-14.2-1.6-22-11.3c-7.8-9.7-10.7-20.4-6.4-23.9
		C173.3,5.3,183.2,10.3,191,20.1z"/>
	<path class="st8" d="M197.7,32.3c0.5,1.7-1.3,3.1-2.9,2.3c-2.8-1.4-6.7-4.3-10.6-9.1c-3.9-4.8-5.9-9.2-6.7-12.3
		c-0.5-1.7,1.3-3.1,2.9-2.3c2.8,1.4,6.7,4.3,10.6,9.1C194.9,24.9,196.9,29.3,197.7,32.3z"/>
	<path class="st10" d="M112,0.5l7.7,14.7c-7.8,1.2-15.6,3.5-23.1,7c-21,9.7-36.2,27-43.8,47L40,58.6C47.1,37,62.8,18.3,85.1,8
		C93.8,3.9,102.9,1.4,112,0.5z"/>
	<g>
		<path class="st8" d="M156.5,159L156.5,159c-0.7,0.5-1.6,0.4-2.2-0.2l-6.5-8.1c-0.5-0.7-0.4-1.6,0.2-2.2l0,0
			c0.7-0.5,1.6-0.4,2.2,0.2l6.5,8.1C157.3,157.5,157.2,158.5,156.5,159z"/>
		<path class="st8" d="M163.7,155.5L163.7,155.5c-0.7,0.5-1.6,0.4-2.2-0.2l-6.5-8.1c-0.5-0.7-0.4-1.6,0.2-2.2l0,0
			c0.7-0.5,1.6-0.4,2.2,0.2l6.5,8.1C164.4,154,164.3,155,163.7,155.5z"/>
		<path class="st8" d="M170.2,151.4L170.2,151.4c-0.7,0.5-1.6,0.4-2.2-0.2l-6.5-8.1c-0.5-0.7-0.4-1.6,0.2-2.2l0,0
			c0.7-0.5,1.6-0.4,2.2,0.2l6.5,8.1C170.9,149.9,170.8,150.8,170.2,151.4z"/>
		<path class="st8" d="M176,146.7L176,146.7c-0.7,0.5-1.6,0.4-2.2-0.2l-6.5-8.1c-0.5-0.7-0.4-1.6,0.2-2.2l0,0
			c0.7-0.5,1.6-0.4,2.2,0.2l6.5,8.1C176.7,145.2,176.6,146.1,176,146.7z"/>
		<path class="st8" d="M181.1,141.4L181.1,141.4c-0.7,0.5-1.6,0.4-2.2-0.2l-6.5-8.1c-0.5-0.7-0.4-1.6,0.2-2.2l0,0
			c0.7-0.5,1.6-0.4,2.2,0.2l6.5,8.1C181.9,139.9,181.8,140.9,181.1,141.4z"/>
		<path class="st8" d="M185.6,135.6L185.6,135.6c-0.7,0.5-1.6,0.4-2.2-0.2l-6.5-8.1c-0.5-0.7-0.4-1.6,0.2-2.2l0,0
			c0.7-0.5,1.6-0.4,2.2,0.2l6.5,8.1C186.4,134,186.3,135,185.6,135.6z"/>
	</g>
	<path class="st2" d="M192.4,259.5c2.8,28.7,6.9,38.8,21.5,67.5c-12.4-6.7-23.9-20.4-36.5-41.6c-6.1-10.3-10.6-21.9-14.8-33.9
		c-5.2,6.2-11.5,11.5-18.6,15.3c-17.9,9.5-39,10.3-59.1,13.2c-20.1,2.9-41.5,9-53.6,25.3c-1.1,1.5-2.1,3-3.1,4.6
		c2.1-17.3,12.6-33.5,28-41.9c-1.7,3.9-3.5,7.7-5.2,11.6c13.6-10.2,30.4-16,47.4-16.5c-1.7,2.2-3.4,4.5-5.1,6.7
		c18.9-0.8,38.7-7.2,47.2-24.2c4.3,4.3,4.1,7.4,3.4,10.7c4.6-6.6,18.5-14.3,30.5-43.7c-5.4,23.2,1.7,44.3,11.5,61.4
		C186.1,269.1,188.3,264.5,192.4,259.5z"/>
	<path class="st2" d="M367.4,44.8c-1.7,0.6-3.4,1.2-5,1.9c-18.8,7.8-29.9,27-37.5,45.8c-7.6,18.8-13.5,39-27.1,54.1
		c-4.1,4.6-9,8.5-14.3,11.6c1.9,1.2,3.9,2.4,5.8,3.6c26.5,16.3,41.8,32.5,48.4,48.3c-16.4-10.7-28.6-17.1-47.3-22.8
		c4.9-1.7,7.1-2,12.3-1.9c-8.5-7.8-31.2-26.5-40-28.2c9.3-0.6,22.6-7.7,28.4-9.4c-6.1-1.3-9.7-2.9-15.7-6.3
		c19.9-4,22.8-21.2,34.7-37.7c-5.7-0.4-11.5,1.2-16.2,4.5c9.1-15.9,20.9-30.2,34.8-42c-4.9-0.8-9.9-0.7-14.7,0.3
		c10.6-8.5,23-14.8,36.1-18.4C354.4,47.1,361.6,44.7,367.4,44.8z"/>
	<path class="st2" d="M392.5,296.7c-2.2-1-4.3-2.3-6.2-3.4c-22.1-12.7-43.4-17.1-64.8-18.3c-8.2,9.5-18.4,18.8-30,27.9
		c-5.4,4.2-10.4,7.9-15.3,11.2c1.5,24.2,6.4,48,21.9,72.4c1.2,1.9,2.5,3.8,3.6,5.9c-17.4-9.7-28.7-18.9-35.3-24.1
		c4.2,1.3,6.4,2.2,10,1.7c-12.2-11.6-22.6-24.9-30.8-39.6c5.4,1.3,11.2,1.4,16.6,0.3c-2.9-1.2-5.7-2.5-8.4-4
		c-8.9-4.7-17.1-10.8-24.2-18c36.9,6.7,70.1-39,71.1-41.8c0.5,2.4,1,4.8,1.5,7.1c9-7.9,14.4-19.7,14.4-31.7c7,2.3,13.8,5.3,20.3,9
		c8.4,4.7,16.2,10.5,23.2,17.2c-2-3.4-4-6.9-6-10.3C370.1,267.2,384.3,280.4,392.5,296.7z"/>
	<path class="st1" d="M134.2,186.8c-2.1,0.1-7,9.7-8.7,11.6c-3.7,4-8.1,7.4-13.1,9.9c3.2,1.3,6.6,2,10,1.9
		c-5.4,10.9-16.8,18.6-28.9,19.5c3.9,1.8,7.9,3.6,11.8,5.4c-12.4,5.8-26.1,8.7-39.8,8.2c3.2,2.7,6.4,5.4,9.6,8.1
		c-5.4,1.6-49.8,3.6-58.4,8.2c4.1-0.2,7.8,2.5,11.7,3.8c4.4,1.4,9.1,0.9,13.6,0.4c6.1-0.7,12.5-0.9,18.5-2.1
		c-0.2-0.6-0.5-1.1-0.8-1.6c11-2.1,21.9-4.6,32.5-8.3c15-5.2,29.5-12.8,41.1-23.7c5.4-5.1,10.4-11.3,11.2-18.7
		c0.4-4.2-0.6-8.4-2.4-12.2C141.2,195,137.2,186.6,134.2,186.8z"/>
	<path class="st1" d="M261.7,99.6c1.3,3.9,1.2,6.4-0.8,8.9c6-1.8,10.8-6.4,14-11.7c3.2-5.3,5.1-11.3,7-17.3
		c3.9,4.7,4.1,6.7,5.6,12.2c5.3-12.6,8.4-27.2,13.7-39.7c1.7,1.3,3.8,3.4,5.5,4.7c1.7-15.5,11.4-28.8,23.5-38.7
		c1.4,10.6-3.4,21.1-9.5,29.9s-13.6,16.6-19,25.8c-5.7,9.8-8.8,21-15.3,30.2c-7.1,10.1-18.2,17-30.1,19.7
		c-4.6,1.1-13.7,3.1-18.2,0.8c-7.1-3.5,1.8-8.3,5.1-9.8C250.5,111.3,257,106.1,261.7,99.6z"/>
	<path class="st1" d="M226.9,361.8c1.7-3.7,3.3-7.3,5-11c0.5,13.4,5.1,26.6,13.1,37.4c-1-6.2-0.5-12.7,1.2-18.8
		c6.5,16.1,16.3,31,28.5,43.4c1.3-6.3,0-13-2.6-18.9c-2.6-5.9-6.4-11.3-10.2-16.5c-9.9-13.8-19.7-27.6-29.6-41.4
		c-5.3-7.5-16.3-14.3-14.7,0.2c0.5,4.6,1.6,9.2,3.2,13.6C221.4,351.3,227.2,361,226.9,361.8z"/>
	<path class="st1" d="M373.6,236.1c-3.6-0.7-7.4,0.2-10.3,2.3c13.9,2.3,27,8.9,37.1,18.6c-5.3-0.6-10.7-0.1-15.8,1.3
		c10.5,2.1,20.4,7,28.4,14.1c-6.7,2.3-14.2,1.2-20.6-1.7c-6.5-2.8-12.1-7.3-17.5-11.8c-6-5-11.9-10.1-17.7-15.4
		c-3-2.8-6-5.5-8.9-8.4c-1.6-1.5-7-5.3-7.3-7.6C340,217.1,370.6,233.6,373.6,236.1z"/>
</g>
</svg>
