<?xml version="1.0" encoding="iso-8859-1"?>
<!-- Generator: Adobe Illustrator 16.0.0, SVG Export Plug-In . SVG Version: 6.00 Build 0)  -->
<!DOCTYPE svg PUBLIC "-//W3C//DTD SVG 1.1//EN" "http://www.w3.org/Graphics/SVG/1.1/DTD/svg11.dtd">
<svg xmlns="http://www.w3.org/2000/svg" xmlns:xlink="http://www.w3.org/1999/xlink" version="1.1" id="Capa_1" x="0px" y="0px" width="512px" height="512px" viewBox="0 0 140.194 140.194" style="enable-background:new 0 0 140.194 140.194;" xml:space="preserve">
<g>
	<g id="_x33_57._Stop">
		<g>
			<path d="M130.792,35.054C111.443,1.533,68.573-9.954,35.055,9.404C1.533,28.754-9.954,71.619,9.404,105.139     c19.351,33.52,62.215,45.008,95.735,25.652C138.659,111.435,150.147,68.573,130.792,35.054z M98.13,118.649     c-26.816,15.485-61.106,6.297-76.588-20.522C6.057,71.314,15.246,37.021,42.063,21.542c26.814-15.485,61.108-6.296,76.589,20.521     C134.135,68.879,124.947,103.167,98.13,118.649z M84.113,49.068H56.081c-3.869,0-7.009,3.14-7.009,7.012v28.03     c0,3.87,3.14,7.008,7.009,7.008h28.032c3.871,0,7.009-3.138,7.009-7.008V56.08C91.122,52.205,87.984,49.068,84.113,49.068z" fill="rgba(255,255,255,0.85)"/>
		</g>
	</g>
</g>
<g>
</g>
<g>
</g>
<g>
</g>
<g>
</g>
<g>
</g>
<g>
</g>
<g>
</g>
<g>
</g>
<g>
</g>
<g>
</g>
<g>
</g>
<g>
</g>
<g>
</g>
<g>
</g>
<g>
</g>
</svg>
